<?xml version="1.0" encoding="UTF-8" standalone="no"?> <svg width="24" height="24" viewBox="0 0 24 24" fill="none" xmlns="http://www.w3.org/2000/svg">
<g clip-path="url(#clip0)">
<path fill-rule="evenodd" clip-rule="evenodd" d="M10.0334 4.4614L4.24783 5.74708C3.9253 5.81875 3.65899 6.04511 3.53628 6.35188L2.47704 8.99998H7.4217L10.0334 4.4614ZM11 6.79155V19.7534L4.78307 18.3718C4.32554 18.2701 4 17.8643 4 17.3956V11H8C8.35778 11 8.6883 10.8088 8.86675 10.4987L11 6.79155ZM2 11H1C0.668181 11 0.357967 10.8354 0.171937 10.5606C-0.0140925 10.2858 -0.0517083 9.93668 0.071528 9.62859L1.67933 5.60909C2.04744 4.6888 2.84637 4.00973 3.81396 3.79471L11.3492 2.12021C11.5635 2.07258 11.7818 2.04877 12 2.04877C12.2182 2.04877 12.4365 2.07258 12.6508 2.12021L20.186 3.79471C21.1536 4.00973 21.9526 4.6888 22.3207 5.6091L23.9285 9.62859C24.0517 9.93668 24.0141 10.2858 23.8281 10.5606C23.642 10.8354 23.3318 11 23 11H22V17.3956C22 18.8017 21.0234 20.0192 19.6508 20.3242L12.6508 21.8798C12.4365 21.9274 12.2182 21.9512 12 21.9512C11.7818 21.9512 11.5635 21.9274 11.3492 21.8798L4.34921 20.3242C2.9766 20.0192 2 18.8017 2 17.3956V11ZM13 19.7534L19.2169 18.3718C19.6745 18.2701 20 17.8643 20 17.3956V11H16C15.6422 11 15.3117 10.8088 15.1333 10.4987L13 6.79155V19.7534ZM13.9666 4.4614L19.7522 5.74708C20.0747 5.81875 20.341 6.04511 20.4637 6.35188L21.523 8.99998H16.5783L13.9666 4.4614Z" fill="#293644"/>
</g>
<defs>
<clipPath id="clip0">
<rect width="24" height="24" fill="white"/>
</clipPath>
</defs>
</svg>
